<?xml version="1.0" encoding="iso-8859-1"?>
<!-- Generator: Adobe Illustrator 15.0.0, SVG Export Plug-In . SVG Version: 6.00 Build 0)  -->
<!DOCTYPE svg PUBLIC "-//W3C//DTD SVG 1.1//EN" "http://www.w3.org/Graphics/SVG/1.1/DTD/svg11.dtd">
<svg version="1.1" id="Layer_1" xmlns="http://www.w3.org/2000/svg" xmlns:xlink="http://www.w3.org/1999/xlink" x="0px" y="0px"
	 width="128px" height="128px" viewBox="0 0 128 128" style="enable-background:new 0 0 128 128;" xml:space="preserve">
<g>
	<circle style="fill:#F2CF61;" cx="64" cy="64" r="64"/>
	<path style="fill:#E6C45C;" d="M120.941,93.204c-0.055-0.148-0.105-0.297-0.164-0.446c-0.016-0.036-0.041-0.063-0.059-0.098
		c-0.064-0.173-0.123-0.344-0.189-0.518c-0.016-0.035-0.04-0.063-0.059-0.098c-0.063-0.173-0.123-0.344-0.189-0.517
		c-0.016-0.036-0.04-0.064-0.059-0.099c-0.063-0.173-0.123-0.344-0.189-0.517c-0.016-0.037-0.04-0.065-0.059-0.101
		c-0.064-0.171-0.123-0.342-0.189-0.514c-0.016-0.036-0.04-0.064-0.059-0.098c-0.063-0.173-0.123-0.345-0.189-0.518
		c-0.016-0.036-0.04-0.063-0.059-0.098c-0.063-0.173-0.123-0.344-0.189-0.518c-0.016-0.035-0.04-0.063-0.059-0.098
		c-0.063-0.173-0.123-0.344-0.189-0.517c-0.016-0.036-0.04-0.064-0.059-0.099c-0.063-0.173-0.123-0.344-0.189-0.517
		c-0.016-0.037-0.04-0.065-0.059-0.101c-0.064-0.171-0.123-0.342-0.189-0.514c-0.016-0.036-0.04-0.063-0.059-0.098
		c-0.063-0.173-0.123-0.344-0.189-0.518c-0.015-0.036-0.04-0.063-0.059-0.098c-0.063-0.173-0.122-0.344-0.189-0.518
		c-0.015-0.035-0.04-0.063-0.058-0.098c-0.064-0.173-0.123-0.344-0.19-0.517c-0.015-0.037-0.039-0.065-0.059-0.101
		c-0.064-0.171-0.122-0.342-0.189-0.514c-0.015-0.036-0.039-0.064-0.058-0.098c-0.063-0.174-0.123-0.345-0.19-0.518
		c-0.015-0.036-0.039-0.063-0.058-0.098c-0.063-0.173-0.123-0.344-0.19-0.518c-0.015-0.035-0.039-0.063-0.058-0.098
		c-0.063-0.173-0.123-0.344-0.19-0.517c-0.015-0.037-0.039-0.065-0.059-0.101c-0.064-0.171-0.122-0.342-0.189-0.514
		c-0.015-0.036-0.039-0.064-0.058-0.098c-0.063-0.174-0.123-0.345-0.19-0.518c-0.015-0.038-0.041-0.067-0.061-0.103
		c-0.063-0.172-0.121-0.342-0.188-0.513c-0.016-0.036-0.041-0.063-0.059-0.098c-0.064-0.173-0.123-0.344-0.189-0.518
		c-0.016-0.035-0.041-0.063-0.059-0.098c-0.064-0.173-0.123-0.344-0.189-0.517c-0.016-0.037-0.041-0.065-0.06-0.101
		c-0.063-0.171-0.122-0.342-0.188-0.514c-0.016-0.036-0.041-0.064-0.059-0.098c-0.064-0.174-0.123-0.345-0.189-0.518
		c-0.016-0.036-0.04-0.063-0.059-0.098c-0.063-0.173-0.123-0.344-0.189-0.518c-0.016-0.036-0.04-0.063-0.059-0.098
		c-0.063-0.173-0.123-0.344-0.189-0.518c-0.016-0.036-0.04-0.064-0.059-0.1c-0.064-0.171-0.123-0.342-0.189-0.514
		c-0.016-0.036-0.04-0.064-0.059-0.099c-0.063-0.173-0.123-0.344-0.189-0.517c-0.016-0.036-0.04-0.064-0.059-0.098
		c-0.063-0.174-0.123-0.345-0.189-0.518c-0.016-0.036-0.04-0.063-0.059-0.098c-0.063-0.173-0.123-0.344-0.189-0.518
		c-0.016-0.037-0.04-0.064-0.059-0.1c-0.064-0.171-0.123-0.342-0.189-0.514c-0.016-0.036-0.04-0.064-0.059-0.099
		c-0.063-0.173-0.123-0.344-0.189-0.517c-0.016-0.036-0.04-0.064-0.059-0.098c-0.063-0.174-0.123-0.345-0.189-0.518
		c-0.015-0.036-0.04-0.064-0.059-0.098c-0.063-0.173-0.122-0.345-0.189-0.518c-0.015-0.036-0.04-0.063-0.058-0.098
		c-0.064-0.173-0.123-0.344-0.19-0.518c-0.015-0.036-0.039-0.064-0.059-0.1c-0.064-0.171-0.122-0.342-0.189-0.514
		c-0.015-0.036-0.039-0.064-0.058-0.099c-0.063-0.173-0.123-0.344-0.19-0.517c-0.015-0.036-0.039-0.064-0.058-0.098
		c-0.063-0.174-0.123-0.345-0.19-0.518c-0.015-0.036-0.039-0.063-0.058-0.098c-0.063-0.173-0.123-0.344-0.19-0.518
		c-0.015-0.037-0.039-0.064-0.059-0.1c-0.064-0.171-0.122-0.342-0.189-0.514c-0.015-0.036-0.039-0.064-0.058-0.099
		c-0.063-0.173-0.123-0.344-0.19-0.517c-0.015-0.036-0.039-0.064-0.058-0.099c-0.063-0.173-0.123-0.344-0.19-0.517
		c-0.015-0.036-0.039-0.064-0.058-0.098c-0.063-0.174-0.123-0.345-0.19-0.518c-0.015-0.037-0.039-0.064-0.059-0.1
		c-0.064-0.171-0.122-0.342-0.189-0.514c-0.014-0.038-0.041-0.067-0.061-0.104c-0.063-0.171-0.121-0.341-0.188-0.512
		c-0.016-0.036-0.041-0.064-0.059-0.099c-0.064-0.173-0.123-0.344-0.189-0.517c-0.016-0.036-0.04-0.064-0.059-0.098
		c-0.063-0.174-0.123-0.345-0.189-0.518c-0.016-0.036-0.04-0.064-0.059-0.098c-0.063-0.173-0.123-0.345-0.189-0.518
		c-0.016-0.037-0.04-0.064-0.059-0.1c-0.064-0.171-0.123-0.342-0.189-0.514c-0.016-0.036-0.04-0.064-0.059-0.099
		c-0.063-0.173-0.123-0.344-0.189-0.517c-0.016-0.036-0.04-0.064-0.059-0.099c-0.063-0.173-0.123-0.344-0.189-0.517
		c-0.016-0.036-0.04-0.064-0.059-0.098c-0.063-0.174-0.123-0.345-0.189-0.518c-0.016-0.037-0.04-0.064-0.059-0.1
		c-0.064-0.171-0.123-0.342-0.189-0.515c-0.016-0.035-0.04-0.063-0.059-0.098c-0.063-0.173-0.123-0.344-0.189-0.517
		c-0.016-0.036-0.04-0.064-0.059-0.099c-0.063-0.173-0.123-0.344-0.189-0.517c-0.015-0.036-0.04-0.064-0.059-0.099
		c-0.063-0.173-0.122-0.344-0.189-0.517c-0.015-0.037-0.04-0.065-0.059-0.1c-0.064-0.172-0.122-0.343-0.189-0.515
		c-0.015-0.036-0.039-0.063-0.058-0.098c-0.063-0.173-0.123-0.344-0.19-0.517c-0.015-0.036-0.039-0.064-0.058-0.099
		c-0.063-0.173-0.123-0.344-0.19-0.517c-0.015-0.036-0.039-0.064-0.058-0.099c-0.063-0.173-0.123-0.344-0.19-0.517
		c-0.015-0.036-0.039-0.064-0.058-0.098c-0.063-0.174-0.123-0.345-0.19-0.518c-0.015-0.037-0.039-0.064-0.059-0.1
		c-0.064-0.171-0.122-0.342-0.189-0.515c-0.015-0.036-0.039-0.063-0.058-0.098c-0.063-0.173-0.123-0.344-0.19-0.517
		c-0.015-0.036-0.039-0.064-0.058-0.099c-0.063-0.173-0.123-0.344-0.19-0.517c-0.015-0.036-0.039-0.064-0.058-0.099
		c-0.063-0.173-0.123-0.344-0.19-0.517c-0.015-0.037-0.039-0.065-0.059-0.1c-0.064-0.172-0.122-0.343-0.189-0.515
		c-0.014-0.036-0.039-0.063-0.058-0.098c-0.063-0.173-0.122-0.344-0.19-0.518c-0.014-0.035-0.039-0.063-0.057-0.098
		c-0.064-0.173-0.123-0.344-0.191-0.517c-0.014-0.036-0.039-0.064-0.057-0.099c-0.064-0.173-0.123-0.344-0.19-0.517
		c-0.015-0.038-0.042-0.068-0.062-0.104c-0.063-0.17-0.121-0.34-0.188-0.51c-0.015-0.036-0.04-0.063-0.058-0.098
		c-0.064-0.173-0.123-0.345-0.19-0.518c-0.015-0.036-0.04-0.063-0.058-0.098c-0.064-0.173-0.123-0.344-0.19-0.518
		c-0.015-0.035-0.04-0.063-0.058-0.098c-0.064-0.173-0.123-0.344-0.19-0.517c-0.015-0.037-0.04-0.065-0.06-0.101
		c-0.063-0.171-0.121-0.342-0.188-0.514c-0.015-0.036-0.04-0.064-0.058-0.098c-0.064-0.174-0.123-0.345-0.19-0.518
		c-0.015-0.036-0.04-0.063-0.058-0.098c-0.064-0.173-0.123-0.345-0.19-0.518c-0.015-0.036-0.04-0.063-0.058-0.098
		c-0.064-0.173-0.123-0.344-0.19-0.517c-0.015-0.036-0.04-0.064-0.058-0.099c-0.064-0.173-0.123-0.344-0.19-0.517
		c-0.015-0.037-0.04-0.065-0.06-0.101c-0.063-0.171-0.121-0.342-0.188-0.514c-0.015-0.036-0.04-0.064-0.058-0.098
		c-0.064-0.173-0.123-0.345-0.19-0.518c-0.015-0.036-0.04-0.063-0.058-0.098c-0.064-0.173-0.123-0.344-0.189-0.518
		c-0.162-0.414-0.57-0.671-1.023-0.631c-8.396,0.786-19.288,2.528-29.24,9.024C68.759,50.749,66.466,50,64,50
		c-0.318,0-0.632,0.021-0.943,0.048c-2.104,0.165-4.062,0.866-5.723,1.981c-9.947-6.496-20.843-8.239-29.241-9.025
		c-0.101-0.009-0.196,0.002-0.291,0.021c-0.032,0.007-0.063,0.017-0.093,0.024c-0.061,0.02-0.116,0.042-0.171,0.071
		c-0.032,0.018-0.065,0.032-0.097,0.053c-0.068,0.048-0.133,0.104-0.189,0.166c-0.075,0.086-0.139,0.185-0.184,0.295
		C24.318,50.642,24,57.318,24,61.729c0,3.988,1.273,11.521,4.068,18.638c0.01,0.022,0.029,0.039,0.039,0.061
		c0.069,0.186,0.138,0.37,0.209,0.555c0.01,0.022,0.029,0.038,0.039,0.062c0.07,0.185,0.138,0.369,0.209,0.553
		c0.011,0.024,0.028,0.04,0.041,0.063c0.068,0.183,0.136,0.367,0.207,0.55c0.01,0.022,0.028,0.039,0.039,0.062
		c0.07,0.186,0.137,0.369,0.209,0.554c0.01,0.022,0.028,0.039,0.039,0.062c0.07,0.186,0.137,0.369,0.209,0.553
		c0.01,0.023,0.028,0.039,0.039,0.063c0.07,0.185,0.137,0.369,0.209,0.553c0.01,0.023,0.028,0.039,0.039,0.063
		c0.07,0.185,0.137,0.369,0.209,0.553c0.01,0.023,0.028,0.04,0.041,0.063c0.068,0.184,0.135,0.367,0.207,0.551
		c0.01,0.022,0.028,0.039,0.039,0.062c0.07,0.186,0.137,0.369,0.209,0.553c0.01,0.023,0.028,0.039,0.039,0.063
		c0.07,0.185,0.137,0.369,0.209,0.553c0.01,0.023,0.028,0.039,0.039,0.063c0.07,0.185,0.137,0.368,0.209,0.553
		c0.01,0.024,0.03,0.043,0.042,0.067c0.069,0.182,0.136,0.363,0.207,0.546c0.011,0.022,0.028,0.039,0.039,0.062
		c0.069,0.186,0.138,0.369,0.209,0.553c0.011,0.023,0.028,0.039,0.039,0.063c0.069,0.185,0.138,0.369,0.209,0.553
		c0.011,0.023,0.028,0.039,0.039,0.063c0.069,0.185,0.137,0.369,0.209,0.553c0.01,0.023,0.028,0.04,0.04,0.063
		c0.068,0.184,0.136,0.367,0.208,0.551c0.01,0.022,0.028,0.039,0.039,0.062c0.069,0.185,0.137,0.369,0.209,0.553
		c0.01,0.023,0.028,0.039,0.039,0.063c0.069,0.185,0.137,0.369,0.209,0.553c0.01,0.023,0.028,0.039,0.039,0.063
		c0.069,0.185,0.137,0.368,0.209,0.553c0.01,0.022,0.028,0.04,0.04,0.063c0.068,0.184,0.136,0.367,0.207,0.55
		c0.011,0.023,0.029,0.039,0.039,0.063c0.07,0.185,0.138,0.369,0.209,0.553c0.011,0.023,0.029,0.039,0.039,0.063
		c0.07,0.185,0.138,0.369,0.209,0.553c0.011,0.023,0.029,0.039,0.039,0.063c0.07,0.185,0.138,0.368,0.209,0.553
		c0.011,0.022,0.029,0.039,0.039,0.062c0.07,0.186,0.138,0.369,0.209,0.554c0.011,0.022,0.028,0.039,0.041,0.063
		c0.068,0.183,0.136,0.367,0.207,0.55c0.011,0.023,0.028,0.039,0.039,0.063c0.07,0.185,0.137,0.369,0.209,0.553
		c0.01,0.022,0.028,0.039,0.039,0.062c0.07,0.186,0.137,0.369,0.209,0.554c0.01,0.022,0.028,0.039,0.039,0.062
		c0.07,0.186,0.137,0.369,0.209,0.553c0.01,0.024,0.028,0.04,0.041,0.063c0.068,0.183,0.135,0.367,0.207,0.55
		c0.01,0.023,0.028,0.039,0.039,0.063c0.07,0.185,0.137,0.369,0.209,0.553c0.01,0.022,0.028,0.039,0.039,0.062
		c0.07,0.186,0.137,0.369,0.209,0.554c0.01,0.022,0.028,0.039,0.039,0.062c0.07,0.186,0.137,0.369,0.209,0.553
		c0.01,0.023,0.028,0.04,0.04,0.063c0.069,0.183,0.136,0.367,0.208,0.55c0.01,0.023,0.028,0.039,0.039,0.063
		c0.07,0.185,0.137,0.368,0.209,0.553c0.01,0.022,0.028,0.039,0.039,0.062c0.07,0.186,0.137,0.369,0.209,0.554
		c0.01,0.022,0.027,0.038,0.039,0.062c0.07,0.186,0.137,0.369,0.209,0.553c0.01,0.024,0.029,0.042,0.041,0.065
		c0.07,0.183,0.137,0.366,0.208,0.549c0.01,0.023,0.028,0.04,0.04,0.063c0.068,0.183,0.136,0.366,0.208,0.55
		c0.009,0.022,0.028,0.039,0.039,0.062c0.069,0.186,0.137,0.369,0.209,0.553c0.009,0.023,0.028,0.039,0.039,0.063
		c0.069,0.185,0.137,0.369,0.209,0.553c0.009,0.023,0.028,0.039,0.039,0.063c0.069,0.185,0.137,0.369,0.209,0.553
		c0.01,0.024,0.028,0.04,0.04,0.063c0.068,0.184,0.136,0.367,0.207,0.551c0.01,0.022,0.029,0.039,0.039,0.062
		c0.07,0.186,0.138,0.369,0.209,0.553c0.01,0.023,0.029,0.039,0.039,0.063c0.07,0.185,0.138,0.369,0.209,0.553
		c0.01,0.023,0.029,0.039,0.039,0.063c0.07,0.185,0.138,0.369,0.209,0.553c0.011,0.022,0.029,0.04,0.041,0.063
		c0.068,0.184,0.136,0.367,0.207,0.551c0.01,0.022,0.028,0.039,0.039,0.062c0.07,0.186,0.138,0.369,0.209,0.553
		c0.01,0.023,0.028,0.039,0.039,0.063c0.07,0.185,0.137,0.369,0.209,0.553c0.01,0.023,0.028,0.039,0.039,0.063
		c0.07,0.185,0.137,0.369,0.209,0.553c0.01,0.022,0.028,0.039,0.039,0.062c0.07,0.186,0.137,0.369,0.209,0.554
		c0.01,0.022,0.028,0.04,0.041,0.063c0.068,0.184,0.135,0.367,0.207,0.55c0.01,0.023,0.028,0.039,0.039,0.063
		c0.07,0.185,0.137,0.369,0.209,0.553c0.01,0.023,0.028,0.039,0.039,0.063c0.07,0.185,0.137,0.368,0.209,0.553
		c0.01,0.022,0.028,0.039,0.039,0.062c0.07,0.186,0.137,0.369,0.209,0.554c0.01,0.023,0.028,0.04,0.04,0.063
		c0.069,0.183,0.136,0.367,0.208,0.55c0.01,0.023,0.028,0.039,0.039,0.063c0.07,0.185,0.137,0.369,0.209,0.553
		c0.01,0.023,0.028,0.039,0.039,0.063c0.07,0.185,0.137,0.368,0.209,0.553c0.009,0.022,0.027,0.039,0.039,0.062
		c0.07,0.186,0.137,0.369,0.209,0.554c0.01,0.022,0.027,0.039,0.04,0.063c0.069,0.183,0.136,0.367,0.208,0.55
		c0.009,0.023,0.027,0.039,0.039,0.063c0.07,0.185,0.137,0.369,0.209,0.553c0.009,0.022,0.027,0.039,0.039,0.062
		c0.07,0.186,0.137,0.369,0.209,0.554c0.01,0.023,0.029,0.042,0.041,0.064c0.07,0.184,0.137,0.366,0.208,0.549
		c0.01,0.023,0.028,0.039,0.039,0.063c0.069,0.185,0.137,0.369,0.209,0.553c0.01,0.023,0.028,0.04,0.04,0.063
		c0.068,0.183,0.136,0.367,0.207,0.55c0.011,0.022,0.029,0.039,0.039,0.062c0.07,0.186,0.138,0.369,0.209,0.554
		c0.011,0.022,0.029,0.039,0.039,0.062c0.07,0.186,0.138,0.369,0.209,0.553c0.011,0.023,0.029,0.039,0.039,0.063
		c0.07,0.185,0.138,0.369,0.209,0.553c0.011,0.024,0.029,0.04,0.041,0.063c0.068,0.183,0.136,0.366,0.207,0.55
		c0.011,0.022,0.028,0.039,0.039,0.062c0.07,0.186,0.138,0.369,0.209,0.554c0.01,0.022,0.028,0.039,0.039,0.062
		c0.07,0.185,0.137,0.369,0.209,0.553c0.01,0.023,0.028,0.039,0.039,0.063c0.07,0.185,0.137,0.369,0.209,0.553
		c0.01,0.023,0.028,0.04,0.041,0.063c0.068,0.183,0.135,0.366,0.207,0.55c0.01,0.022,0.028,0.039,0.039,0.062
		c0.07,0.186,0.137,0.369,0.209,0.553c0.01,0.023,0.028,0.039,0.039,0.063c0.032,0.084,0.064,0.169,0.096,0.253
		C51.934,127.118,57.861,128,64,128C88.82,128,110.326,113.859,120.941,93.204z"/>
	<path style="fill:#992B1F;" d="M74.639,99.366c-0.117,0-0.234-0.021-0.348-0.063c-0.287-0.104-0.51-0.338-0.604-0.629
		c-0.508-1.562-1.725-3.707-3.133-6.19c-2.886-5.087-6.836-12.054-7.55-19.388c-0.04-0.412,0.179-0.806,0.548-0.99l8-4
		c0.213-0.106,0.459-0.137,0.689-0.075l16,4C88.688,72.141,89,72.541,89,73v5c0,0.044-0.003,0.088-0.009,0.132
		c-1.058,7.974-8.996,18.13-13.832,21.088C75,99.316,74.818,99.366,74.639,99.366z"/>
	<path style="fill:#8C271C;" d="M75.37,68.813l-3.128-0.781c-0.23-0.062-0.477-0.031-0.689,0.075l-8,4
		c-0.369,0.186-0.588,0.578-0.548,0.99c0.128,1.312,0.362,2.608,0.672,3.888c0.108,0.003,0.214,0.017,0.323,0.017
		C69.284,77,73.771,73.563,75.37,68.813z"/>
	<path style="fill:#8C271C;" d="M88.242,72.03l-16-4c-0.23-0.062-0.477-0.031-0.689,0.075l-0.818,0.408l0.269,4.544
		c0.019,0.314,0.185,0.604,0.447,0.776c5.758,3.802,11.073,6.41,16.595,8.075c0.447-1.287,0.785-2.561,0.947-3.778
		c0.006-0.044,0.009-0.088,0.009-0.132v-5C89,72.541,88.688,72.142,88.242,72.03z"/>
	<path style="fill:#8C271C;" d="M88.242,72.03l-16-4c-0.23-0.062-0.477-0.031-0.689,0.075l-0.67,0.335l14.359,3.59
		C85.688,72.141,86,72.541,86,73v5c0,0.044-0.003,0.088-0.009,0.132c-0.964,7.261-7.626,16.313-12.462,20.11
		c0.056,0.146,0.111,0.295,0.156,0.433c0.096,0.291,0.317,0.523,0.604,0.629c0.112,0.042,0.229,0.063,0.347,0.063
		c0.182,0,0.362-0.05,0.521-0.146c4.836-2.958,12.773-13.114,13.832-21.088c0.006-0.044,0.009-0.088,0.009-0.132v-5
		C89,72.541,88.688,72.142,88.242,72.03z"/>
	<path style="fill:#992B1F;" d="M53.361,99.366c-0.182,0-0.361-0.05-0.521-0.146c-4.839-2.959-12.778-13.116-13.832-21.089
		C39.003,78.088,39,78.044,39,78v-5c0-0.438,0.284-0.824,0.702-0.954l16-5c0.274-0.089,0.58-0.049,0.827,0.106l8,5
		c0.322,0.201,0.503,0.565,0.466,0.943c-0.711,7.335-4.663,14.302-7.55,19.389c-1.408,2.482-2.625,4.629-3.133,6.189
		c-0.095,0.291-0.316,0.523-0.604,0.629C53.598,99.346,53.479,99.366,53.361,99.366z"/>
	<path style="fill:#8C271C;" d="M56.529,67.152c-0.247-0.155-0.553-0.195-0.827-0.106l-16,5C39.284,72.176,39,72.563,39,73v5
		c0,0.044,0.003,0.088,0.009,0.131c0.161,1.22,0.499,2.492,0.946,3.78c5.523-1.666,10.84-4.274,16.596-8.077
		c0.264-0.173,0.43-0.461,0.447-0.775l0.318-5.415L56.529,67.152z"/>
	<path style="fill:#8C271C;" d="M64.529,72.152l-8-5c-0.247-0.155-0.553-0.195-0.827-0.106l-3.286,1.027
		C53.777,73.203,58.447,77,64,77c0.109,0,0.216-0.014,0.324-0.018c0.31-1.277,0.544-2.575,0.671-3.887
		C65.032,72.719,64.852,72.354,64.529,72.152z"/>
	<path style="fill:#8C271C;" d="M64.529,72.152l-8-5c-0.247-0.155-0.553-0.195-0.827-0.106l-1.562,0.488l7.389,4.618
		c0.322,0.2,0.503,0.565,0.466,0.943c-0.711,7.335-4.663,14.301-7.55,19.389c-1.284,2.265-2.402,4.241-2.975,5.758
		c0.475,0.373,0.938,0.713,1.369,0.978c0.159,0.097,0.34,0.146,0.521,0.146c0.117,0,0.234-0.021,0.347-0.063
		c0.287-0.104,0.51-0.338,0.604-0.629c0.506-1.562,1.724-3.707,3.133-6.189c2.886-5.088,6.838-12.054,7.549-19.389
		C65.032,72.719,64.852,72.354,64.529,72.152z"/>
	<path style="fill:#C23527;" d="M29,81c-0.408,0-0.779-0.249-0.932-0.634C25.273,73.251,24,65.718,24,61.729
		c0-4.411,0.318-11.088,3.068-18.095c0.162-0.414,0.568-0.671,1.023-0.631c8.46,0.792,19.454,2.549,29.459,9.162
		c0.297,0.196,0.469,0.537,0.446,0.893l-1,17c-0.019,0.314-0.185,0.604-0.447,0.775c-9.387,6.2-17.599,9.239-27.458,10.162
		C29.063,80.999,29.029,81,29,81z"/>
	<path style="fill:#B33124;" d="M57.552,52.166c-10.005-6.613-20.999-8.37-29.459-9.162c-0.331-0.029-0.636,0.104-0.841,0.336
		c7.934,0.95,17.499,3.009,26.3,8.826c0.298,0.196,0.468,0.537,0.446,0.893l-1,17c-0.02,0.314-0.184,0.604-0.447,0.775
		c-8.378,5.533-15.822,8.544-24.335,9.784C28.402,80.855,28.689,81,29,81c0.029,0,0.063-0.001,0.093-0.004
		c9.859-0.923,18.071-3.962,27.458-10.162c0.264-0.173,0.43-0.461,0.447-0.775l1-17C58.02,52.703,57.85,52.362,57.552,52.166z"/>
	<path style="fill:#C23527;" d="M99,81c-0.029,0-0.063-0.001-0.093-0.004c-9.854-0.922-18.066-3.961-27.458-10.161
		c-0.264-0.174-0.43-0.462-0.447-0.776l-1-17c-0.021-0.355,0.148-0.695,0.446-0.893c10.011-6.614,21.001-8.37,29.459-9.162
		c0.454-0.04,0.86,0.217,1.022,0.631C104,51.463,104,59.19,104,61.729c0,3.981-1.273,11.513-4.068,18.637
		C99.779,80.751,99.408,81,99,81z"/>
	<path style="fill:#B33124;" d="M70.002,53.059l1,17c0.02,0.314,0.184,0.604,0.447,0.776c0.669,0.442,1.33,0.863,1.99,1.273
		C76.775,69.974,79,66.245,79,61.999c0-4.8-2.84-8.938-6.922-10.854c-0.545,0.328-1.09,0.664-1.63,1.021
		C70.15,52.362,69.98,52.702,70.002,53.059z"/>
	<path style="fill:#B33124;" d="M100.932,43.635c-0.162-0.414-0.57-0.671-1.023-0.631c-1.018,0.096-2.074,0.206-3.159,0.336
		c0.075,0.086,0.14,0.185,0.183,0.295C100,51.463,100,59.19,100,61.729c0,3.981-1.273,11.513-4.068,18.637
		c-0.037,0.094-0.088,0.178-0.146,0.253c1.025,0.148,2.063,0.278,3.123,0.378C98.938,80.999,98.971,81,99,81
		c0.408,0,0.779-0.249,0.932-0.635C102.727,73.241,104,65.711,104,61.729C104,59.19,104,51.463,100.932,43.635z"/>
	<path style="fill:#FFC066;" d="M64,74c-6.616,0-11.998-5.384-11.998-12.001C52.002,55.383,57.384,50,64,50
		c6.618,0,12.002,5.383,12.002,11.999C76.002,68.616,70.618,74,64,74z"/>
	<path style="fill:#FFD599;" d="M56.002,62.999c-0.553,0-1-0.447-1-1c0-2.93,1.438-5.685,3.842-7.371
		c0.452-0.319,1.076-0.207,1.393,0.244c0.318,0.452,0.209,1.076-0.243,1.393c-1.872,1.313-2.99,3.456-2.99,5.734
		C57.002,62.552,56.555,62.999,56.002,62.999z"/>
	<path style="fill:#F2B661;" d="M64,50c-0.51,0-1.008,0.042-1.501,0.104C68.41,50.846,73,55.892,73,61.999
		s-4.59,11.154-10.501,11.896C62.992,73.958,63.49,74,64,74c6.618,0,12.002-5.384,12.002-12.001C76.002,55.383,70.618,50,64,50z"/>
</g>
</svg>
