<?xml version="1.0" encoding="iso-8859-1"?>
<!-- Generator: Adobe Illustrator 15.0.0, SVG Export Plug-In . SVG Version: 6.00 Build 0)  -->
<!DOCTYPE svg PUBLIC "-//W3C//DTD SVG 1.1//EN" "http://www.w3.org/Graphics/SVG/1.1/DTD/svg11.dtd">
<svg version="1.1" id="Layer_1" xmlns="http://www.w3.org/2000/svg" xmlns:xlink="http://www.w3.org/1999/xlink" x="0px" y="0px"
	 width="128px" height="128px" viewBox="0 0 128 128" style="enable-background:new 0 0 128 128;" xml:space="preserve">
<g>
	<circle style="fill:#4AB8A1;" cx="64" cy="64" r="64"/>
	<path style="fill:#F7EAC6;" d="M29.455,91.027c-1.618-2.492-0.91-5.824,1.582-7.443l4.011-2.604
		c-2.491,1.617-5.823,0.909-7.442-1.582c-1.617-2.492-0.91-5.824,1.582-7.442l3.008-1.953l0.006,0.007
		c5.387-3.494,16.24-10.557,18.545-12.053c4.48-2.911,10.771-6.447,9.777-11.43c12.194-8.969,16.414-0.57,24.309-0.729l4.061-2.637
		l15.303,23.563l-4.106,2.668c1.979,4.877-3.45,10.08-5.437,11.369c-1.924,1.25-21.364,13.875-30.993,20.128
		c-2.472,1.604-4.296,2.79-5.013,3.255l-3.008,1.954l-0.021-0.028c-2.418,1.216-5.413,0.443-6.922-1.878
		c-1.509-2.322-0.993-5.373,1.1-7.089l-0.019-0.028l-3.51,2.278c-2.492,1.618-5.824,0.91-7.441-1.581
		c-1.619-2.492-0.91-5.823,1.581-7.441l-3.509,2.278C34.404,94.227,31.073,93.519,29.455,91.027z"/>
	<path style="fill:#E6D9B8;" d="M94.798,71.956l-3.008-1.953l-0.005,0.007c-5.389-3.494-16.241-10.557-18.545-12.053
		c-4.481-2.911-10.772-6.447-9.778-11.43c-0.495-0.363-0.983-0.696-1.47-1.017c-0.479,0.314-0.965,0.646-1.471,1.017
		c0.994,4.981-5.295,8.519-9.776,11.43C48.441,59.453,37.587,66.516,32.2,70.01l-0.005-0.007l-3.008,1.953
		c-2.461,1.599-3.179,4.864-1.639,7.346c0.688,0.659,1.327,1.163,1.783,1.46c0.229,0.147,0.705,0.457,1.374,0.894
		c1.427,0.387,3.003,0.193,4.341-0.674l-2.689,1.745c6.261,4.064,20.258,13.154,27.97,18.163c0.596,0.388,1.151,0.747,1.665,1.081
		c0.515-0.334,1.068-0.693,1.664-1.081c7.713-5.009,21.71-14.099,27.97-18.163l-2.688-1.745c1.338,0.867,2.916,1.061,4.342,0.673
		c0.668-0.436,1.146-0.744,1.373-0.893c0.457-0.297,1.096-0.801,1.783-1.459C97.977,76.821,97.258,73.555,94.798,71.956z"/>
	
		<rect x="95.128" y="38.894" transform="matrix(0.8387 -0.5445 0.5445 0.8387 -13.7051 61.994)" style="fill:#E6E6E6;" width="5.38" height="30.486"/>
	<path style="fill:#805026;" d="M90.122,37.374l19.858,30.581l17.572-11.411c-1.492-12.853-6.787-24.537-14.736-33.909
		L90.122,37.374z"/>
	<path style="fill:#FFF4D9;" d="M92.139,91.027c1.618-2.492,0.91-5.824-1.582-7.443l-4.011-2.604
		c2.492,1.616,5.824,0.909,7.442-1.582c1.617-2.492,0.91-5.824-1.582-7.442l-3.008-1.953l-0.006,0.007
		c-5.387-3.494-16.24-10.557-18.545-12.053c-4.48-2.911-10.771-6.447-9.777-11.43c-12.194-8.969-21.541-3.905-24.309-0.729
		l-4.061-2.637L17.4,66.725l4.105,2.668c-1.979,4.877,3.45,10.08,5.436,11.369c1.925,1.25,21.365,13.875,30.994,20.128
		c2.472,1.604,4.297,2.79,5.014,3.255l3.009,1.954l0.019-0.028c2.418,1.215,5.414,0.443,6.922-1.878
		c1.509-2.322,0.994-5.373-1.1-7.089l0.02-0.028l3.51,2.278c2.492,1.618,5.824,0.91,7.441-1.581c1.619-2.492,0.91-5.823-1.582-7.441
		l3.51,2.278C87.188,94.227,90.521,93.519,92.139,91.027z"/>
	<g>
		<path style="fill:#F2E4C2;" d="M66.977,105.069l-0.019,0.028l-3.009-1.954c-0.717-0.465-2.542-1.649-5.014-3.255
			c-9.629-6.253-29.069-18.878-30.994-20.128c-1.984-1.289-7.412-6.492-5.436-11.369L18.4,65.724l14.547-22.401l-0.245-0.16
			L17.4,66.725l4.105,2.668c-1.979,4.877,3.45,10.08,5.436,11.369c1.925,1.25,21.365,13.875,30.994,20.128
			c2.472,1.604,4.297,2.79,5.014,3.255l3.009,1.954l0.019-0.028c2.277,1.144,5.051,0.509,6.629-1.507
			C71.003,105.76,68.823,105.998,66.977,105.069z"/>
		<path style="fill:#F2E4C2;" d="M76.327,98.354L55.286,84.832c-0.654-0.253-1.42,0.341-0.729,1.021l20.771,13.5
			c2.365,1.537,5.472,0.955,7.166-1.237C80.736,99.443,78.279,99.621,76.327,98.354z"/>
		<path style="fill:#F2E4C2;" d="M85.732,91.666L58.783,74.029c-0.654-0.252-1.42,0.342-0.729,1.021l26.68,17.614
			c2.365,1.537,5.472,0.955,7.166-1.238C90.145,92.756,87.688,92.934,85.732,91.666z"/>
		<path style="fill:#F2E4C2;" d="M87.546,80.072L66.805,66.398c-0.654-0.253-1.421,0.342-0.729,1.021l20.471,13.651
			c2.365,1.537,5.472,0.955,7.166-1.238C91.956,81.162,89.499,81.34,87.546,80.072z"/>
	</g>
	
		<rect x="21.103" y="38.867" transform="matrix(-0.8388 -0.5444 0.5444 -0.8388 14.2941 112.4516)" style="fill:#E6E6E6;" width="5.38" height="30.486"/>
	<path style="fill:#406A80;" d="M0.102,60.479l11.512,7.477l19.859-30.581l-18.49-12.007C5.502,35.23,0.813,47.324,0.102,60.479z"/>
	<path style="fill:#F7EAC6;" d="M61.544,40.279c-3.661-0.075-13.897,2.166-16.362,1.941c-2.468-0.225-8.871,10.489-11.07,13.065
		c-0.016,0.018-0.026,0.037-0.041,0.055c-0.057,0.062-0.113,0.111-0.172,0.18c-2.041,2.382-5.648,6.143-3.941,8.771
		c1.133,1.744,3.059,2.653,4.995,2.576c0.001,0.004,0.004,0.011,0.004,0.011c0.046-0.004,0.097-0.01,0.146-0.015
		c0.611-0.041,1.221-0.185,1.807-0.429c3.169-1.113,8.142-4.606,13.505-14.129c5.08,3.887,20.024,9.116,34.146-6.65
		C78.432,42.445,65.206,40.354,61.544,40.279z"/>
	<path style="fill:#FFFFFF;" d="M69.21,98.168l-1.565-1.018c-0.172-0.112-0.406-0.063-0.519,0.108l-2.849,4.388
		c-0.111,0.172-0.063,0.403,0.109,0.517l1.566,1.018c1.385,0.899,3.236,0.507,4.135-0.879
		C70.986,100.918,70.596,99.066,69.21,98.168z"/>
	<path style="fill:#FFFFFF;" d="M78.177,90.994l-1.565-1.019c-0.174-0.11-0.405-0.063-0.519,0.109l-2.849,4.387
		c-0.112,0.173-0.063,0.406,0.109,0.519l1.566,1.018c1.385,0.898,3.234,0.506,4.135-0.879
		C79.954,93.744,79.563,91.893,78.177,90.994z"/>
	<path style="fill:#FFFFFF;" d="M87.741,84.419l-1.567-1.018c-0.172-0.112-0.404-0.063-0.517,0.108l-2.849,4.388
		c-0.113,0.173-0.063,0.404,0.109,0.517l1.566,1.018c1.384,0.899,3.234,0.507,4.135-0.879C89.52,87.169,89.125,85.318,87.741,84.419
		z"/>
	<path style="fill:#FFFFFF;" d="M90.729,74.257l-1.565-1.018c-0.172-0.112-0.405-0.063-0.517,0.108l-2.85,4.388
		c-0.111,0.173-0.063,0.404,0.109,0.517l1.566,1.018c1.385,0.899,3.235,0.507,4.135-0.879
		C92.508,77.007,92.114,75.156,90.729,74.257z"/>
</g>
</svg>
